<svg xmlns="http://www.w3.org/2000/svg" viewBox="0 0 77.45 14.15"><defs><style>.cls-1{fill:#fff;}</style></defs><g id="Capa_2" data-name="Capa 2"><g id="Capa_1-2" data-name="Capa 1"><path class="cls-1" d="M19.9,10.9h.42l1.18,3.22h-.68L20.11,12l-.71,2.17h-.68Zm-.55,2.15h1.54v.56H19.35Z"/><path class="cls-1" d="M24.29,12.34v.75a1,1,0,0,1-.15.56.93.93,0,0,1-.39.37,1.33,1.33,0,0,1-.61.13,1.41,1.41,0,0,1-.61-.12,1,1,0,0,1-.41-.35,1.06,1.06,0,0,1-.14-.54V11.93a1,1,0,0,1,.14-.56.9.9,0,0,1,.4-.37,1.49,1.49,0,0,1,1.17,0,1,1,0,0,1,.39.33,1.43,1.43,0,0,1,.18.55h-.69a.48.48,0,0,0-.08-.22.37.37,0,0,0-.15-.13.58.58,0,0,0-.47,0,.37.37,0,0,0-.17.16.6.6,0,0,0-.05.24v1.21a.43.43,0,0,0,.06.22.47.47,0,0,0,.17.14.67.67,0,0,0,.26.05.55.55,0,0,0,.26-.06.35.35,0,0,0,.17-.15.48.48,0,0,0,.06-.24v-.2h-.46v-.56Z"/><path class="cls-1" d="M25,10.9h.65v3.22H25Zm.26,0h1.84v.57H25.3Zm0,1.34h1.62v.56H25.3Zm0,1.31h1.84v.57H25.3Z"/><path class="cls-1" d="M27.82,10.9h.7l1.15,2.35-.07.07V10.9h.62v3.21h-.71l-1.14-2.28.06-.07v2.35h-.61Z"/><path class="cls-1" d="M31.51,14a.93.93,0,0,1-.39-.37,1.14,1.14,0,0,1-.13-.57V11.93a1.12,1.12,0,0,1,.13-.57.87.87,0,0,1,.39-.37,1.44,1.44,0,0,1,.61-.12,1.2,1.2,0,0,1,.57.12.85.85,0,0,1,.38.37,1.63,1.63,0,0,1,.18.61h-.67a.77.77,0,0,0-.08-.29.5.5,0,0,0-.15-.17.44.44,0,0,0-.23-.06.51.51,0,0,0-.25.06.41.41,0,0,0-.16.16.67.67,0,0,0-.05.26v1.16a.62.62,0,0,0,.05.25.44.44,0,0,0,.16.17.66.66,0,0,0,.25.05.44.44,0,0,0,.23-.06.36.36,0,0,0,.15-.17.71.71,0,0,0,.08-.28h.67a1.69,1.69,0,0,1-.18.61,1,1,0,0,1-.38.37,1.2,1.2,0,0,1-.57.12A1.44,1.44,0,0,1,31.51,14Z"/><path class="cls-1" d="M34.57,14.12H33.9V10.9h.67Z"/><path class="cls-1" d="M36.33,10.9h.42l1.18,3.22h-.68L36.54,12l-.71,2.17h-.68Zm-.55,2.15h1.55v.56H35.78Z"/><path class="cls-1" d="M39.22,10.9h.67l.61,2.17.6-2.17h.68l-1,3.22h-.57Z"/><path class="cls-1" d="M43,14.12h-.66V10.9H43Z"/><path class="cls-1" d="M44.31,14.08a1.27,1.27,0,0,1-.4-.21,1.14,1.14,0,0,1-.26-.35l.57-.33a.59.59,0,0,0,.27.29.71.71,0,0,0,.39.11.64.64,0,0,0,.36-.09.29.29,0,0,0,.13-.25v-.11A.24.24,0,0,0,45.3,13a.42.42,0,0,0-.18-.11l-.31-.09h-.05a3.25,3.25,0,0,1-.52-.16.75.75,0,0,1-.33-.26.74.74,0,0,1-.15-.49v-.06a.86.86,0,0,1,.14-.49.83.83,0,0,1,.39-.32,1.7,1.7,0,0,1,.63-.1,1.63,1.63,0,0,1,.45.06,1.1,1.1,0,0,1,.35.2,1.2,1.2,0,0,1,.25.33l-.53.34a.85.85,0,0,0-.25-.28.56.56,0,0,0-.31-.09.67.67,0,0,0-.35.08.26.26,0,0,0-.12.23v.08a.29.29,0,0,0,.07.2.56.56,0,0,0,.2.12l.32.09h.1a2.55,2.55,0,0,1,.47.16.9.9,0,0,1,.32.26.82.82,0,0,1,.13.47v.1a.88.88,0,0,1-.14.49.82.82,0,0,1-.41.31,1.94,1.94,0,0,1-1.16,0Z"/><path class="cls-1" d="M47.24,14a.85.85,0,0,1-.39-.36,1.26,1.26,0,0,1-.13-.57V10.9h.65v2.21a.44.44,0,0,0,.13.34.49.49,0,0,0,.36.12.52.52,0,0,0,.36-.12.44.44,0,0,0,.13-.34V10.9H49v2.19a1.15,1.15,0,0,1-.14.57.85.85,0,0,1-.39.36,1.28,1.28,0,0,1-.61.13A1.32,1.32,0,0,1,47.24,14Z"/><path class="cls-1" d="M50.64,10.9h.43l1.17,3.22h-.67L50.85,12l-.71,2.17h-.68Zm-.55,2.15h1.55v.56H50.09Z"/><path class="cls-1" d="M52.88,10.9h.64v3.22h-.64Zm.28,2.65H55v.57H53.16Z"/><path class="cls-1" d="M57.08,14a.93.93,0,0,1-.39-.37,1.14,1.14,0,0,1-.13-.57V11.93a1.12,1.12,0,0,1,.13-.57.87.87,0,0,1,.39-.37,1.41,1.41,0,0,1,.61-.12,1.26,1.26,0,0,1,.57.12.85.85,0,0,1,.38.37,1.47,1.47,0,0,1,.17.61h-.66a1,1,0,0,0-.08-.29.52.52,0,0,0-.16-.17.4.4,0,0,0-.22-.06.49.49,0,0,0-.25.06.41.41,0,0,0-.16.16.53.53,0,0,0-.06.26v1.16a.49.49,0,0,0,.06.25.44.44,0,0,0,.16.17.62.62,0,0,0,.25.05.38.38,0,0,0,.22-.06.33.33,0,0,0,.16-.17.93.93,0,0,0,.08-.28h.66a1.51,1.51,0,0,1-.17.61,1,1,0,0,1-.38.37,1.26,1.26,0,0,1-.57.12A1.41,1.41,0,0,1,57.08,14Z"/><path class="cls-1" d="M59.52,10.9h.64v3.22h-.64Zm.27,1.34h1a.43.43,0,0,0,.17,0,.57.57,0,0,0,.11-.11.48.48,0,0,0,0-.18v-.12a.48.48,0,0,0,0-.18A.29.29,0,0,0,61,11.5a.31.31,0,0,0-.17,0h-1V10.9h1a1.13,1.13,0,0,1,.51.1.85.85,0,0,1,.34.31,1,1,0,0,1,.11.47v.13a1,1,0,0,1-.11.47.73.73,0,0,1-.34.31,1.13,1.13,0,0,1-.51.11h-1Zm.66.46.66-.1.82,1.52h-.76Z"/><path class="cls-1" d="M62.62,10.9h.65v3.22h-.65Zm.25,0h1.85v.57H62.87Zm0,1.34H64.5v.56H62.87Zm0,1.31h1.85v.57H62.87Z"/><path class="cls-1" d="M66.45,10.9h.42l1.18,3.22h-.68L66.66,12,66,14.12h-.68Zm-.55,2.15h1.54v.56H65.9Z"/><path class="cls-1" d="M68.05,10.9h2.31v.56H68.05Zm.83.26h.65v3h-.65Z"/><path class="cls-1" d="M71.55,14.12h-.66V10.9h.66Z"/><path class="cls-1" d="M72.11,10.9h.68l.6,2.17L74,10.9h.67l-1,3.22h-.57Z"/><path class="cls-1" d="M75.85,10.9h.42l1.18,3.22h-.68L76.06,12l-.71,2.17h-.68Zm-.55,2.15h1.55v.56H75.3Z"/><path class="cls-1" d="M0,.09H1.56V8.61H0Zm.75,7H3a1,1,0,0,0,.7-.21.83.83,0,0,0,.25-.63V5.86a1,1,0,0,0-.11-.48.82.82,0,0,0-.33-.31A1.13,1.13,0,0,0,3,5H.75V3.49H2.93a.86.86,0,0,0,.64-.22.85.85,0,0,0,.23-.62V2.32a.69.69,0,0,0-.23-.55.93.93,0,0,0-.63-.2H.75V.09H3A2.86,2.86,0,0,1,4.28.34a1.68,1.68,0,0,1,.79.72A2.29,2.29,0,0,1,5.34,2.2v.33a1.89,1.89,0,0,1-.17.81,1.61,1.61,0,0,1-.52.58,2.06,2.06,0,0,1-.82.3,2.19,2.19,0,0,1,.88.31,1.52,1.52,0,0,1,.55.63,2,2,0,0,1,.2.89v.43a2.3,2.3,0,0,1-.28,1.15,1.75,1.75,0,0,1-.79.73,3,3,0,0,1-1.26.25H.75Z"/><path class="cls-1" d="M7.74,8.36a2.19,2.19,0,0,1-.93-.95,3.25,3.25,0,0,1-.32-1.52V.09H8V5.94a1.29,1.29,0,0,0,.3.9,1.16,1.16,0,0,0,.87.32,1.18,1.18,0,0,0,.87-.32,1.29,1.29,0,0,0,.3-.9V.09h1.56v5.8a3.38,3.38,0,0,1-.32,1.52,2.27,2.27,0,0,1-.94.95,3.07,3.07,0,0,1-1.47.34A3,3,0,0,1,7.74,8.36Z"/><path class="cls-1" d="M13.28.09H15l2.76,6.22-.16.18V.09H19V8.6H17.33l-2.73-6,.15-.18V8.6H13.28Z"/><path class="cls-1" d="M20.59.09h1.55V8.61H20.59Zm1,5,2.78-5H26.3L21.76,7.33Zm1.1-.89L24,3.3l2.65,5.31H24.83Z"/><path class="cls-1" d="M27.48.09H29V8.61H27.48Zm.6,0H32.5v1.5H28.08Zm0,3.54H32V5.12h-3.9Zm0,3.48H32.5v1.5H28.08Z"/><path class="cls-1" d="M33.7.08h1.54V8.61H33.7Zm.65,3.55H36.8a.71.71,0,0,0,.39-.11.62.62,0,0,0,.26-.29.93.93,0,0,0,.1-.45V2.44A1.11,1.11,0,0,0,37.46,2a.7.7,0,0,0-.26-.3.77.77,0,0,0-.4-.1H34.35V.08h2.5a2.53,2.53,0,0,1,1.22.29,2.05,2.05,0,0,1,.8.8,2.7,2.7,0,0,1,.28,1.24v.36A2.7,2.7,0,0,1,38.87,4a2,2,0,0,1-.8.82,2.53,2.53,0,0,1-1.22.29h-2.5Zm1.57,1.22,1.58-.27,2,4H37.65Z"/><path class="cls-1" d="M42.84.09h1.61L45.9,5.84,47.36.09H49L46.59,8.61H45.22Z"/><path class="cls-1" d="M51.32,8.61H49.73V.09h1.59Z"/><path class="cls-1" d="M54,8.51A2.66,2.66,0,0,1,53,8,2.71,2.71,0,0,1,52.4,7l1.34-.88a1.89,1.89,0,0,0,.66.78,1.63,1.63,0,0,0,.92.27A1.42,1.42,0,0,0,56.2,7a.76.76,0,0,0,.31-.66V6a.68.68,0,0,0-.17-.49,1.08,1.08,0,0,0-.44-.3c-.19-.07-.43-.14-.72-.22H55a9.76,9.76,0,0,1-1.23-.41A2,2,0,0,1,53,3.89a2.29,2.29,0,0,1-.34-1.31V2.42A2.5,2.5,0,0,1,53,1.11a2.07,2.07,0,0,1,.94-.83A3.56,3.56,0,0,1,55.43,0,3,3,0,0,1,56.5.18a2.41,2.41,0,0,1,.85.52,2.8,2.8,0,0,1,.59.86l-1.26.91a2,2,0,0,0-.59-.73,1.27,1.27,0,0,0-.77-.25,1.31,1.31,0,0,0-.82.22.68.68,0,0,0-.29.6v.2a.8.8,0,0,0,.18.54,1.17,1.17,0,0,0,.46.31,6.38,6.38,0,0,0,.77.25h.06l.06,0,.06,0h.05A6.6,6.6,0,0,1,57,4.09a2.09,2.09,0,0,1,.76.69A2.25,2.25,0,0,1,58.05,6v.27a2.43,2.43,0,0,1-.33,1.29,2,2,0,0,1-1,.83,3.7,3.7,0,0,1-1.53.29A4,4,0,0,1,54,8.51Z"/><path class="cls-1" d="M60.28,8.36a2.19,2.19,0,0,1-.93-.95A3.25,3.25,0,0,1,59,5.89V.09h1.55V5.94a1.29,1.29,0,0,0,.3.9,1.34,1.34,0,0,0,1.74,0,1.29,1.29,0,0,0,.3-.9V.09h1.56v5.8a3.38,3.38,0,0,1-.32,1.52,2.27,2.27,0,0,1-.94.95,3.35,3.35,0,0,1-2.94,0Z"/><path class="cls-1" d="M67.73.09h1l2.82,8.52H70L68.24,2.87l-1.7,5.74H64.92ZM66.42,5.78h3.7V7.26h-3.7Z"/><path class="cls-1" d="M72.47.09H74V8.61H72.47Zm.68,7h4.3v1.5h-4.3Z"/></g></g></svg>