<svg xmlns="http://www.w3.org/2000/svg" viewBox="0 0 72.41 25.04"><defs><style>.cls-1,.cls-2{fill:#454646;}.cls-2{font-size:24.19px;font-family:MS-Gothic, MS Gothic;letter-spacing:-0.01em;}.cls-3{fill:#706f6f;}.cls-4{fill:#e6332a;}</style></defs><g id="Capa_2" data-name="Capa 2"><g id="Capa_1-2" data-name="Capa 1"><path class="cls-1" d="M25.77,20.57V11h1.81v1.36a4.62,4.62,0,0,1,3.23-1.62,3.16,3.16,0,0,1,.66.05l-.25,1.82a5.12,5.12,0,0,0-.63,0,3.3,3.3,0,0,0-2.05.72,2.79,2.79,0,0,0-1,2.34v4.91Z"/><path class="cls-1" d="M37,20.79a5.59,5.59,0,0,1-2.87-.68,4.11,4.11,0,0,1-1.67-1.79,5.8,5.8,0,0,1-.54-2.51,5.5,5.5,0,0,1,.63-2.68,4.37,4.37,0,0,1,1.75-1.74,5.26,5.26,0,0,1,2.55-.62A4.12,4.12,0,0,1,40.07,12a5,5,0,0,1,1.07,3.44c0,1-1.35.94-1.35.94h-6l.06.34a3.39,3.39,0,0,0,1.06,2.1,3.27,3.27,0,0,0,2.17.66,7.55,7.55,0,0,0,1.81-.18l.54-.17.5-.2.27.63.24.56c-.14.07-.29.14-.47.21s-.47.17-.74.25A8.82,8.82,0,0,1,37,20.79Zm-.22-8.58a2.78,2.78,0,0,0-2.94,2.73l-.05.32h5.63V15a2.72,2.72,0,0,0-.68-2.14A2.83,2.83,0,0,0,36.75,12.21Z"/><path class="cls-1" d="M47.19,20.79a4.87,4.87,0,0,1-2.38-.61,4.64,4.64,0,0,1-1.74-1.75,5.2,5.2,0,0,1-.66-2.66A5.81,5.81,0,0,1,43,13.12a4.16,4.16,0,0,1,1.62-1.73,4.87,4.87,0,0,1,2.49-.62,4.19,4.19,0,0,1,1.55.29,4.35,4.35,0,0,1,1.22.71c.31.27,1.21-.74,1.21-.74h1.7v9.54H51.1l0-.88s-.24-.14-1.1.46A6.29,6.29,0,0,1,47.19,20.79Zm.21-8.56a2.75,2.75,0,0,0-2.26,1,4,4,0,0,0-.79,2.55,4.1,4.1,0,0,0,.78,2.57,2.75,2.75,0,0,0,2.27,1,2.87,2.87,0,0,0,2.19-1A3.52,3.52,0,0,0,50.47,16v-.16a4.06,4.06,0,0,0-.4-1.83A3.15,3.15,0,0,0,49,12.69,2.76,2.76,0,0,0,47.4,12.23Z"/><path class="cls-1" d="M64.28,5.64V20.53H62.56V20a.54.54,0,0,0-.75-.26,8.33,8.33,0,0,1-3.32,1,4.35,4.35,0,0,1-3.25-1.27A5.09,5.09,0,0,1,54,15.81a5.55,5.55,0,0,1,.61-2.66,4.41,4.41,0,0,1,4-2.38,4.81,4.81,0,0,1,2.09.42c.29.14.77.4,1.17.63a.48.48,0,0,0,.7-.42l0-5.76ZM59,19.31a3,3,0,0,0,1.52-.42,3.07,3.07,0,0,0,1.13-1.21,3.74,3.74,0,0,0,.42-1.8v-.15a3.89,3.89,0,0,0-.42-1.83,3.16,3.16,0,0,0-1.12-1.25A2.84,2.84,0,0,0,59,12.21a2.73,2.73,0,0,0-2.27,1,4,4,0,0,0-.78,2.53,4.05,4.05,0,0,0,.77,2.57A2.74,2.74,0,0,0,59,19.31Z"/><path class="cls-1" d="M68.69,20.79a9,9,0,0,1-2.13-.27A5,5,0,0,1,65.23,20l.57-1.34a5.5,5.5,0,0,0,2.89.79c1.63,0,2-.7,2-1.28a1.06,1.06,0,0,0-.48-.91,6.22,6.22,0,0,0-1.32-.61L68,16.38a6.24,6.24,0,0,1-2-1.2,2.28,2.28,0,0,1-.68-1.74,2.24,2.24,0,0,1,1-1.94,4.69,4.69,0,0,1,2.75-.73,7.47,7.47,0,0,1,1.71.19,4.39,4.39,0,0,1,1,.35l-.6,1.33a3,3,0,0,0-.72-.32A4.6,4.6,0,0,0,69,12.1c-1.53,0-1.85.66-1.85,1.23a1.2,1.2,0,0,0,.55,1,7.17,7.17,0,0,0,1.42.63l.68.24a5.71,5.71,0,0,1,2,1.19,2.21,2.21,0,0,1,.6,1.61,2.28,2.28,0,0,1-1,2A4.75,4.75,0,0,1,68.69,20.79Z"/><text class="cls-2" transform="translate(13.17 20.79)">k</text><polygon class="cls-3" points="2.06 23.68 1.81 23.85 3.47 23.85 3.77 23.68 2.06 23.68"/><polygon class="cls-3" points="7.74 19.95 10.49 19.95 13.64 18.2 11.11 18.2 11.14 17.72 7.74 19.95"/><polygon class="cls-3" points="2.97 23.09 2.71 23.26 4.54 23.26 4.84 23.09 2.97 23.09"/><polygon class="cls-3" points="1.33 25.04 1.64 24.87 0.26 24.87 0 25.04 1.33 25.04"/><polygon class="cls-3" points="1.16 24.27 0.9 24.45 2.4 24.45 2.71 24.27 1.16 24.27"/><polygon class="cls-3" points="7.55 20.08 6.84 20.55 9.42 20.55 10.26 20.08 7.55 20.08"/><polygon class="cls-3" points="6.65 20.67 5.94 21.14 8.35 21.14 9.19 20.67 6.65 20.67"/><polygon class="cls-3" points="5.03 21.73 7.28 21.73 8.12 21.27 5.74 21.27 5.03 21.73"/><polygon class="cls-3" points="3.74 22.56 3.41 22.77 5.41 22.77 5.79 22.56 3.74 22.56"/><polygon class="cls-3" points="4.13 22.33 6.21 22.33 7.05 21.86 4.84 21.86 4.13 22.33"/><polygon class="cls-4" points="12.5 2.57 11.93 2.57 11.14 17.72 11.11 18.2 13.64 18.2 12.5 2.57"/><polygon class="cls-4" points="11.93 2.57 12.38 2.17 12.51 2.57 11.93 2.57"/><path class="cls-4" d="M33.08,22h.26l.8,2.16h-.33l-.6-1.74-.59,1.74h-.33Zm-.42,1.4h1.13v.29H32.66Z"/><path class="cls-4" d="M36,23v.37a1,1,0,0,1-.09.43.66.66,0,0,1-.27.28.71.71,0,0,1-.39.1.84.84,0,0,1-.4-.09.7.7,0,0,1-.27-.27.84.84,0,0,1-.09-.4v-.63a1,1,0,0,1,.09-.43.7.7,0,0,1,.26-.28.88.88,0,0,1,.4-.1.77.77,0,0,1,.34.08.64.64,0,0,1,.26.23.71.71,0,0,1,.14.33h-.32a.51.51,0,0,0-.09-.18.42.42,0,0,0-.33-.16.41.41,0,0,0-.23.06.4.4,0,0,0-.16.18.57.57,0,0,0,0,.27v.63a.51.51,0,0,0,0,.25.49.49,0,0,0,.16.16.48.48,0,0,0,.24.06.42.42,0,0,0,.23-.07.38.38,0,0,0,.16-.17.76.76,0,0,0,.05-.27v-.09h-.43V23Z"/><path class="cls-4" d="M36.6,22h.3v2.16h-.3Zm.15,0H38v.29H36.75Zm0,1h1.07v.28H36.75Zm0,.92H38v.29H36.75Z"/><path class="cls-4" d="M38.52,22h.27l1.06,1.67,0,0V22h.3v2.16h-.28l-1-1.64,0,0v1.68h-.3Z"/><path class="cls-4" d="M41.05,24.07a.7.7,0,0,1-.26-.28.93.93,0,0,1-.09-.42v-.59a1,1,0,0,1,.09-.43.7.7,0,0,1,.26-.28.88.88,0,0,1,.4-.1.81.81,0,0,1,.34.08.71.71,0,0,1,.26.23.82.82,0,0,1,.14.33h-.31a.44.44,0,0,0-.25-.3.39.39,0,0,0-.18,0,.41.41,0,0,0-.23.06.4.4,0,0,0-.16.18.72.72,0,0,0-.05.27v.59a.67.67,0,0,0,.05.26.4.4,0,0,0,.16.18.42.42,0,0,0,.23.07.41.41,0,0,0,.18-.05.42.42,0,0,0,.16-.11.66.66,0,0,0,.09-.19h.31a.94.94,0,0,1-.14.34.78.78,0,0,1-.26.22.81.81,0,0,1-.34.08A.77.77,0,0,1,41.05,24.07Z"/><path class="cls-4" d="M43,24.15h-.3V22H43Z"/><path class="cls-4" d="M44.3,22h.26l.79,2.16H45l-.6-1.74-.6,1.74h-.32Zm-.43,1.4H45v.29H43.87Z"/><path class="cls-4" d="M46.27,22h.33l.51,1.69L47.63,22H48l-.7,2.16H47Z"/><path class="cls-4" d="M48.73,24.15h-.3V22h.3Z"/><path class="cls-4" d="M49.74,24.14a1.14,1.14,0,0,1-.26-.09,1.07,1.07,0,0,1-.22-.15l.18-.23a1,1,0,0,0,.27.16.88.88,0,0,0,.33.06.64.64,0,0,0,.36-.09.3.3,0,0,0,.13-.25h0a.28.28,0,0,0-.06-.18.38.38,0,0,0-.15-.09,1,1,0,0,0-.24-.06h0a1.84,1.84,0,0,1-.35-.08.56.56,0,0,1-.24-.17.62.62,0,0,1-.09-.36h0a.64.64,0,0,1,.09-.34.55.55,0,0,1,.26-.21,1,1,0,0,1,.41-.08.91.91,0,0,1,.23,0,.94.94,0,0,1,.22.07l.21.13-.17.24a1,1,0,0,0-.24-.14.73.73,0,0,0-.25,0,.55.55,0,0,0-.34.09.27.27,0,0,0-.12.24h0a.24.24,0,0,0,.06.17.35.35,0,0,0,.16.09l.26.07h0a1.93,1.93,0,0,1,.33.09.55.55,0,0,1,.22.18.54.54,0,0,1,.09.33h0a.52.52,0,0,1-.1.33.54.54,0,0,1-.27.22,1.09,1.09,0,0,1-.42.07A1.39,1.39,0,0,1,49.74,24.14Z"/><path class="cls-4" d="M51.69,24.08a.68.68,0,0,1-.25-.28.94.94,0,0,1-.09-.43V22h.3v1.39a.49.49,0,0,0,.12.36.42.42,0,0,0,.33.13.42.42,0,0,0,.34-.13.49.49,0,0,0,.12-.36V22h.3v1.38a.94.94,0,0,1-.09.43.64.64,0,0,1-.26.28.86.86,0,0,1-.41.09A.88.88,0,0,1,51.69,24.08Z"/><path class="cls-4" d="M54,22h.26l.79,2.16h-.32l-.6-1.74-.6,1.74h-.32Zm-.43,1.4h1.14v.29H53.6Z"/><path class="cls-4" d="M55.56,22h.3v2.16h-.3Zm.15,1.87H57v.29H55.71Z"/><path class="cls-4" d="M58.43,24.07a.73.73,0,0,1-.27-.28.93.93,0,0,1-.09-.42v-.59a1,1,0,0,1,.09-.43.73.73,0,0,1,.27-.28.81.81,0,0,1,.39-.1.77.77,0,0,1,.34.08.8.8,0,0,1,.4.56h-.31a.44.44,0,0,0-.25-.3.39.39,0,0,0-.18,0,.44.44,0,0,0-.23.06.34.34,0,0,0-.15.18.57.57,0,0,0-.06.27v.59a.53.53,0,0,0,.06.26.34.34,0,0,0,.15.18.45.45,0,0,0,.23.07.37.37,0,0,0,.18-.05.42.42,0,0,0,.16-.11.66.66,0,0,0,.09-.19h.31a.79.79,0,0,1-.14.34.78.78,0,0,1-.26.22.77.77,0,0,1-.34.08A.71.71,0,0,1,58.43,24.07Z"/><path class="cls-4" d="M60.1,22h.3v2.16h-.3Zm.13,1H61a.26.26,0,0,0,.26-.16.47.47,0,0,0,0-.17.48.48,0,0,0,0-.18.26.26,0,0,0-.26-.16h-.73V22H61a.67.67,0,0,1,.33.08.52.52,0,0,1,.22.22.67.67,0,0,1,.08.33.66.66,0,0,1-.08.32.52.52,0,0,1-.22.22.7.7,0,0,1-.33.08h-.72Zm.59.22.3-.07.55,1h-.36Z"/><path class="cls-4" d="M62.19,22h.3v2.16h-.3Zm.15,0h1.24v.29H62.34Zm0,1h1.07v.28H62.34Zm0,.92h1.24v.29H62.34Z"/><path class="cls-4" d="M64.79,22h.26l.79,2.16h-.32l-.6-1.74-.6,1.74H64Zm-.43,1.4H65.5v.29H64.36Z"/><path class="cls-4" d="M65.89,22H67.4v.29H65.89Zm.6.18h.31v2h-.31Z"/><path class="cls-4" d="M68.14,24.15h-.3V22h.3Z"/><path class="cls-4" d="M68.61,22h.33l.51,1.69L70,22h.33l-.7,2.16h-.29Z"/><path class="cls-4" d="M71.16,22h.26l.79,2.16h-.33l-.59-1.74-.6,1.74h-.33Zm-.43,1.4h1.13v.29H70.73Z"/></g></g></svg>