<svg xmlns="http://www.w3.org/2000/svg" viewBox="0 0 72.41 24.86"><defs><style>.cls-1{fill:#ededed;}.cls-2{fill:#fff;}</style></defs><g id="Capa_2" data-name="Capa 2"><g id="Capa_1-2" data-name="Capa 1"><path class="cls-1" d="M25.77,18.4V8.86h1.81v1.36A4.62,4.62,0,0,1,30.81,8.6a4.43,4.43,0,0,1,.66,0l-.25,1.83a3.69,3.69,0,0,0-.63,0,3.25,3.25,0,0,0-2.05.72,2.77,2.77,0,0,0-1,2.34V18.4Z"/><path class="cls-1" d="M37,18.62a5.59,5.59,0,0,1-2.87-.68,4.17,4.17,0,0,1-1.67-1.79,5.8,5.8,0,0,1-.54-2.51A5.47,5.47,0,0,1,32.52,11a4.4,4.4,0,0,1,1.75-1.75,5.25,5.25,0,0,1,2.55-.61,4.12,4.12,0,0,1,3.25,1.19,5,5,0,0,1,1.07,3.43c0,1-1.35.95-1.35.95h-6l.06.33a3.42,3.42,0,0,0,1.06,2.11,3.27,3.27,0,0,0,2.17.66,7,7,0,0,0,1.81-.19,4.26,4.26,0,0,0,.54-.16,4.4,4.4,0,0,0,.5-.21l.27.64.24.55a3.45,3.45,0,0,1-.47.22c-.22.08-.47.17-.74.24A8.35,8.35,0,0,1,37,18.62ZM36.75,10a2.79,2.79,0,0,0-2.94,2.73l-.05.33h5.63v-.28a2.72,2.72,0,0,0-.68-2.14A2.84,2.84,0,0,0,36.75,10Z"/><path class="cls-1" d="M47.19,18.62A4.77,4.77,0,0,1,44.81,18a4.54,4.54,0,0,1-1.74-1.74,5.2,5.2,0,0,1-.66-2.66A5.81,5.81,0,0,1,43,11a4.1,4.1,0,0,1,1.62-1.73A4.87,4.87,0,0,1,47.1,8.6a4,4,0,0,1,1.55.29,4.35,4.35,0,0,1,1.22.71c.31.27,1.21-.74,1.21-.74h1.7V18.4H51.1l0-.89s-.24-.14-1.1.46A6.29,6.29,0,0,1,47.19,18.62Zm.21-8.56a2.75,2.75,0,0,0-2.26,1,4,4,0,0,0-.79,2.55,4.12,4.12,0,0,0,.78,2.57,2.75,2.75,0,0,0,2.27,1,2.9,2.9,0,0,0,2.19-.95,3.55,3.55,0,0,0,.88-2.48v-.15a4,4,0,0,0-.4-1.83A3.25,3.25,0,0,0,49,10.51,2.83,2.83,0,0,0,47.4,10.06Z"/><path class="cls-1" d="M64.28,3.47V18.35H62.56v-.48a.54.54,0,0,0-.75-.26,8.33,8.33,0,0,1-3.32,1,4.35,4.35,0,0,1-3.25-1.27A5.09,5.09,0,0,1,54,13.64,5.55,5.55,0,0,1,54.61,11a4.41,4.41,0,0,1,4-2.38A4.81,4.81,0,0,1,60.69,9c.29.14.77.4,1.17.62a.47.47,0,0,0,.7-.41l0-5.76ZM59,17.14a3,3,0,0,0,1.52-.42,3.14,3.14,0,0,0,1.13-1.21,3.77,3.77,0,0,0,.42-1.8v-.16a3.85,3.85,0,0,0-.42-1.82,3.16,3.16,0,0,0-1.12-1.25A2.77,2.77,0,0,0,59,10a2.71,2.71,0,0,0-2.27,1,4,4,0,0,0-.78,2.52,4.06,4.06,0,0,0,.77,2.58A2.77,2.77,0,0,0,59,17.14Z"/><path class="cls-1" d="M68.69,18.62a9,9,0,0,1-2.13-.27,5,5,0,0,1-1.33-.48l.57-1.34a5.49,5.49,0,0,0,2.89.78c1.63,0,2-.69,2-1.27a1.08,1.08,0,0,0-.48-.92,6.89,6.89,0,0,0-1.32-.6L68,14.21A6.24,6.24,0,0,1,66,13a2.28,2.28,0,0,1-.68-1.75,2.22,2.22,0,0,1,1-1.93,4.62,4.62,0,0,1,2.75-.73,7.47,7.47,0,0,1,1.71.19,4.42,4.42,0,0,1,1,.34l-.6,1.34a3,3,0,0,0-.72-.32A4.6,4.6,0,0,0,69,9.92c-1.53,0-1.85.67-1.85,1.23a1.17,1.17,0,0,0,.55,1,6.55,6.55,0,0,0,1.42.64l.68.24a5.71,5.71,0,0,1,2,1.19,2.19,2.19,0,0,1,.6,1.6,2.3,2.3,0,0,1-1,2A4.83,4.83,0,0,1,68.69,18.62Z"/><path class="cls-1" d="M18.65,11.53l-2.07,2.36v4.54H14.69V0h1.89V11.34L21.3,5.48h2.36L20,10l4.34,8.41H22.15Z"/><polygon class="cls-1" points="2.06 21.51 1.81 21.68 3.47 21.68 3.77 21.51 2.06 21.51"/><polygon class="cls-1" points="7.74 17.78 10.49 17.78 13.64 16.02 11.11 16.02 11.14 15.54 7.74 17.78"/><polygon class="cls-1" points="2.97 20.91 2.71 21.09 4.54 21.09 4.84 20.91 2.97 20.91"/><polygon class="cls-1" points="1.33 22.86 1.64 22.7 0.26 22.7 0 22.86 1.33 22.86"/><polygon class="cls-1" points="1.16 22.1 0.9 22.27 2.4 22.27 2.71 22.1 1.16 22.1"/><polygon class="cls-1" points="7.55 17.91 6.84 18.37 9.42 18.37 10.26 17.91 7.55 17.91"/><polygon class="cls-1" points="6.65 18.5 5.94 18.97 8.35 18.97 9.19 18.5 6.65 18.5"/><polygon class="cls-1" points="5.03 19.56 7.28 19.56 8.12 19.09 5.74 19.09 5.03 19.56"/><polygon class="cls-1" points="3.74 20.39 3.41 20.6 5.41 20.6 5.79 20.39 3.74 20.39"/><polygon class="cls-1" points="4.13 20.15 6.21 20.15 7.05 19.69 4.84 19.69 4.13 20.15"/><polygon class="cls-2" points="12.5 0.4 11.93 0.4 11.14 15.54 11.11 16.02 13.64 16.02 12.5 0.4"/><polygon class="cls-2" points="11.93 0.4 12.38 0 12.51 0.4 11.93 0.4"/><path class="cls-2" d="M14.82,19.86h.43l1.17,4.95h-.67L15,21.48l-.71,3.33h-.68Zm-.55,3.31h1.55V24H14.27Z"/><path class="cls-2" d="M19.21,22.08v1.15a2.46,2.46,0,0,1-.14.86,1.22,1.22,0,0,1-.4.57.92.92,0,0,1-.61.2,1.07,1.07,0,0,1-.61-.18,1.24,1.24,0,0,1-.4-.54,2.12,2.12,0,0,1-.15-.83V21.45a2.56,2.56,0,0,1,.14-.87,1.3,1.3,0,0,1,.4-.57,1,1,0,0,1,.61-.2,1,1,0,0,1,.57.17,1.16,1.16,0,0,1,.38.52,2.43,2.43,0,0,1,.18.83H18.5a1,1,0,0,0-.08-.33.41.41,0,0,0-.16-.2.38.38,0,0,0-.21-.07.37.37,0,0,0-.25.09.62.62,0,0,0-.17.26,1,1,0,0,0-.06.37v1.86a.81.81,0,0,0,.06.33.48.48,0,0,0,.17.22.47.47,0,0,0,.26.08.39.39,0,0,0,.26-.09.44.44,0,0,0,.17-.24,1,1,0,0,0,.06-.37V23H18.1v-.87Z"/><path class="cls-2" d="M20,19.86h.65v4.95H20Zm.25,0h1.85v.87H20.22Zm0,2.06h1.63v.87H20.22Zm0,2h1.85v.87H20.22Z"/><path class="cls-2" d="M22.75,19.86h.69l1.16,3.62-.07.1V19.86h.61v4.95h-.7L23.3,21.3l.06-.11v3.62h-.61Z"/><path class="cls-2" d="M26.44,24.67a1.15,1.15,0,0,1-.39-.55,2.61,2.61,0,0,1-.13-.89V21.45a2.61,2.61,0,0,1,.13-.89,1.23,1.23,0,0,1,.39-.56,1,1,0,0,1,.61-.19.87.87,0,0,1,.57.19,1.18,1.18,0,0,1,.38.56,3.36,3.36,0,0,1,.17.94H27.5a1.57,1.57,0,0,0-.08-.43.68.68,0,0,0-.15-.27.31.31,0,0,0-.22-.09.37.37,0,0,0-.25.09.57.57,0,0,0-.16.25,1.16,1.16,0,0,0-.06.4v1.78a1.1,1.1,0,0,0,.06.39.52.52,0,0,0,.16.25.37.37,0,0,0,.25.09.29.29,0,0,0,.22-.09.55.55,0,0,0,.16-.26,1.69,1.69,0,0,0,.07-.44h.67a3.3,3.3,0,0,1-.17.94,1.36,1.36,0,0,1-.38.57.92.92,0,0,1-.57.18A1,1,0,0,1,26.44,24.67Z"/><path class="cls-2" d="M29.49,24.81h-.66V19.86h.66Z"/><path class="cls-2" d="M31.25,19.86h.43l1.18,4.95h-.68l-.71-3.33-.71,3.33h-.68Zm-.55,3.31h1.55V24H30.7Z"/><path class="cls-2" d="M34.14,19.86h.68l.6,3.34L36,19.86h.67l-1,4.95h-.57Z"/><path class="cls-2" d="M37.93,24.81h-.67V19.86h.67Z"/><path class="cls-2" d="M39.24,24.76a1.16,1.16,0,0,1-.4-.33,1.54,1.54,0,0,1-.26-.53l.56-.52a1.19,1.19,0,0,0,.27.46.61.61,0,0,0,.39.16.5.5,0,0,0,.37-.14.57.57,0,0,0,.13-.39v-.16a.58.58,0,0,0-.07-.28.52.52,0,0,0-.19-.17,1.42,1.42,0,0,0-.3-.13h-.06a3.09,3.09,0,0,1-.51-.24,1.06,1.06,0,0,1-.34-.4,1.78,1.78,0,0,1-.14-.76v-.09a1.91,1.91,0,0,1,.14-.76,1,1,0,0,1,.39-.49,1.14,1.14,0,0,1,.63-.16.92.92,0,0,1,.44.1,1,1,0,0,1,.36.31,1.55,1.55,0,0,1,.24.5l-.52.52a1.2,1.2,0,0,0-.25-.42.44.44,0,0,0-.32-.15.46.46,0,0,0-.34.13.45.45,0,0,0-.13.35v.12a.57.57,0,0,0,.08.31.54.54,0,0,0,.19.18,3.39,3.39,0,0,0,.32.15H40a2.66,2.66,0,0,1,.48.25,1,1,0,0,1,.31.4,1.63,1.63,0,0,1,.13.72v.15a1.75,1.75,0,0,1-.14.76,1,1,0,0,1-.4.48,1.19,1.19,0,0,1-.64.16A1.24,1.24,0,0,1,39.24,24.76Z"/><path class="cls-2" d="M42.17,24.67a1.2,1.2,0,0,1-.39-.55,2.59,2.59,0,0,1-.13-.88V19.86h.65v3.4a1,1,0,0,0,.12.52.41.41,0,0,0,.36.19.42.42,0,0,0,.37-.19,1,1,0,0,0,.12-.52v-3.4h.65v3.38a2.59,2.59,0,0,1-.13.88,1.2,1.2,0,0,1-.39.55,1,1,0,0,1-.62.19A1,1,0,0,1,42.17,24.67Z"/><path class="cls-2" d="M45.57,19.86H46l1.18,4.95h-.68l-.71-3.33-.71,3.33h-.68ZM45,23.17h1.55V24H45Z"/><path class="cls-2" d="M47.8,19.86h.65v4.95H47.8ZM48.08,24h1.8v.86h-1.8Z"/><path class="cls-2" d="M52,24.67a1.13,1.13,0,0,1-.38-.55,2.6,2.6,0,0,1-.14-.89V21.45a2.6,2.6,0,0,1,.14-.89A1.21,1.21,0,0,1,52,20a1,1,0,0,1,.62-.19.87.87,0,0,1,.57.19,1.17,1.17,0,0,1,.37.56,3.34,3.34,0,0,1,.18.94h-.67a1.57,1.57,0,0,0-.08-.43.68.68,0,0,0-.15-.27.33.33,0,0,0-.22-.09.35.35,0,0,0-.25.09.49.49,0,0,0-.16.25,1.16,1.16,0,0,0-.06.4v1.78a1.1,1.1,0,0,0,.06.39.45.45,0,0,0,.16.25.35.35,0,0,0,.25.09.31.31,0,0,0,.22-.09.64.64,0,0,0,.15-.26,1.65,1.65,0,0,0,.08-.44h.67a3.65,3.65,0,0,1-.18.94,1.35,1.35,0,0,1-.37.57.92.92,0,0,1-.57.18A1,1,0,0,1,52,24.67Z"/><path class="cls-2" d="M54.45,19.85h.64v5h-.64Zm.26,2.07h1a.23.23,0,0,0,.16-.06.34.34,0,0,0,.11-.17.77.77,0,0,0,0-.27v-.2A.75.75,0,0,0,56,21a.33.33,0,0,0-.11-.18.23.23,0,0,0-.16-.06h-1v-.87h1a.85.85,0,0,1,.51.17,1.11,1.11,0,0,1,.33.47,1.94,1.94,0,0,1,.12.72v.21a2,2,0,0,1-.12.72,1.08,1.08,0,0,1-.33.48.84.84,0,0,1-.51.16h-1Zm.66.71.66-.16.82,2.34h-.76Z"/><path class="cls-2" d="M57.55,19.86h.64v4.95h-.64Zm.25,0h1.84v.87H57.8Zm0,2.06h1.63v.87H57.8Zm0,2h1.84v.87H57.8Z"/><path class="cls-2" d="M61.37,19.86h.43L63,24.81H62.3l-.72-3.33-.71,3.33h-.68Zm-.55,3.31h1.55V24H60.82Z"/><path class="cls-2" d="M63,19.86h2.32v.87H63Zm.83.41h.65v4.54H63.8Z"/><path class="cls-2" d="M66.48,24.81h-.67V19.86h.67Z"/><path class="cls-2" d="M67,19.86h.67l.61,3.34.61-3.34h.67l-1,4.95H68Z"/><path class="cls-2" d="M70.77,19.86h.43l1.18,4.95H71.7L71,21.48l-.71,3.33h-.69Zm-.55,3.31h1.55V24H70.22Z"/></g></g></svg>